<?xml version="1.0" encoding="utf-8"?><svg viewBox="0 0 105.907 105.907" xmlns="http://www.w3.org/2000/svg" xmlns:xlink="http://www.w3.org/1999/xlink"><style>:root>svg{display:none}:root>svg:target{display:block}</style><svg viewBox="0 0 41.282 44.938" id="analyse-ico" xmlns="http://www.w3.org/2000/svg"><defs><style>.acls-1{fill:#ffe600;fill-rule:evenodd}</style></defs><path id="aIcon" class="acls-1" d="M178.055 824.3l-13.084-23.127.029-9.368h.73a1.4 1.4 0 000-2.808h-13.867a1.4 1.4 0 000 2.808h1.1l.037 9.367-13.458 23.128c-3.14 5.3-.716 9.633 5.386 9.633h27.739c6.1 0 8.527-4.335 5.388-9.633m-30.97-7.343l8.907-15.011v-9.952h6.017v9.952l8.441 15.011h-23.365z" transform="translate(-138.156 -789)"/></svg><svg viewBox="0 0 45 35.938" id="deliver-ico" xmlns="http://www.w3.org/2000/svg"><defs><style>.bcls-1{fill:#ffe600;fill-rule:evenodd}</style></defs><path id="bIcon" class="bcls-1" d="M1181.01 816.035l-5.96-11.046-8.05.033v-5.267a3.1 3.1 0 00-3.13-2.765h-25.14a2.767 2.767 0 00-2.7 2.828l-.03 22.061 2.61 2.109 3.88.031a8.3 8.3 0 00-.97 3.391 5.59 5.59 0 0011.18 0 8.19 8.19 0 00-.59-3.422l15.46.031a8.082 8.082 0 00-.9 3.391 5.585 5.585 0 0011.17 0 8.159 8.159 0 00-.81-3.391l3.98-.031v-7.953zm-13.94-1.047l-.03-6.929 5.01-.062 3.9 6.991h-8.88z" transform="translate(-1136 -797)"/></svg><svg viewBox="0 0 42.531 45" id="finalyse-ico" xmlns="http://www.w3.org/2000/svg"><defs><style>.ccls-1{fill:#ffe600;fill-rule:evenodd}</style></defs><path id="cIcon" class="ccls-1" d="M778.143 814.872a8.687 8.687 0 013.106-11.714l-4.332-7.66a8.167 8.167 0 01-4.212 1.166 8.5 8.5 0 01-8.383-8.614h-8.663a8.619 8.619 0 01-1.118 4.319 8.316 8.316 0 01-11.489 3.109l-4.333 7.662a8.385 8.385 0 013.093 3.139 8.686 8.686 0 01-3.087 11.7l4.333 7.661a8.175 8.175 0 014.193-1.154 8.5 8.5 0 018.382 8.568h8.667a8.608 8.608 0 011.119-4.275 8.311 8.311 0 0111.466-3.118l4.332-7.661a8.374 8.374 0 01-3.074-3.128m-18.16 4.793a9.113 9.113 0 118.927-9.112 9.019 9.019 0 01-8.927 9.112" transform="translate(-738.719 -788.062)"/></svg><svg viewBox="0 0 105.907 105.907" id="graphic-ico" xmlns="http://www.w3.org/2000/svg"><defs><style>.dcls-1{fill:#ffe600;fill-rule:evenodd}</style></defs><path id="dCircle" class="dcls-1" d="M507.994 307.81a52.955 52.955 0 11-52.954 52.955 52.955 52.955 0 0152.954-52.955z" transform="translate(-455.031 -307.812)"/></svg><svg viewBox="0 0 43.093 43.969" id="preparing-ico" xmlns="http://www.w3.org/2000/svg"><defs><style>.ecls-1{fill:#ffe600;fill-rule:evenodd}</style></defs><path id="eIcon" class="ecls-1" d="M376.086 788.993l2.89 24.544-3.244.382L373.149 792h-27.367l-2.582 21.919-3.244-.382 2.891-24.544h33.24zM349 793.952h20.97l.042 3.037-21.012.084v-3.121zm.024 6.035h21.016l-.031 3.029-21.016-.032zm0 6h20.985v3.03l-21.016.031zm-.062 5h21.047l.031 3.061-21.047-.031zm30.9 6.059l-41.032-.063a1.057 1.057 0 00-.784 1.555l4.477 13.131a2.044 2.044 0 001.811 1.3H374.6a2.046 2.046 0 001.812-1.3l4.54-13.258a1.057 1.057 0 00-1-1.428m-14.949 5h-11.04l.031-3h10.976z" transform="translate(-337.938 -789)"/></svg><svg viewBox="0 0 38.656 41.031" id="testing-ico" xmlns="http://www.w3.org/2000/svg"><defs><style>.fcls-1{fill:#ffe600;fill-rule:evenodd}</style></defs><path id="fIcon" class="fcls-1" d="M954.751 797.5a5.471 5.471 0 105.471-5.469 5.472 5.472 0 00-5.471 5.469m11.6 4.809a5.471 5.471 0 105.471-5.47 5.47 5.47 0 00-5.471 5.47m7.543 11.6a2.735 2.735 0 102.734-2.735 2.736 2.736 0 00-2.734 2.735m-4.807 11.6a2.735 2.735 0 102.735-2.735 2.734 2.734 0 00-2.735 2.735m-11.605 4.807a2.735 2.735 0 102.736-2.734 2.738 2.738 0 00-2.736 2.734m-11.6-4.807a2.736 2.736 0 102.735-2.735 2.734 2.734 0 00-2.735 2.735m-1.368-23.206a4.1 4.1 0 104.1-4.1 4.1 4.1 0 00-4.1 4.1m-3.781 11.6a3.077 3.077 0 103.077-3.077 3.077 3.077 0 00-3.077 3.077" transform="translate(-940.719 -792.031)"/></svg><svg viewBox="0 0 44.094 41.907" id="working-ico" xmlns="http://www.w3.org/2000/svg"><defs><style>.gcls-1{fill:#ffe600;fill-rule:evenodd}</style></defs><path id="gIcon" class="gcls-1" d="M577.356 824.537l-12.985-12.983a2.071 2.071 0 00-2.922 0l-.974.974-7.922-7.923 13.371-13.575h-13.737l-6.523 6.686-.575-.761-3.077.031.031 2.953.7.7-8.872 8.874 6.889 6.89 8.872-8.873 7.923 7.922-.974.974a2.071 2.071 0 000 2.923l12.982 12.983a2.073 2.073 0 002.922 0l4.87-4.87a2.068 2.068 0 000-2.923" transform="translate(-533.875 -791.031)"/></svg></svg>